<svg width="48" height="48" viewBox="0 0 48 48" fill="none" xmlns="http://www.w3.org/2000/svg">
<rect width="48" height="48" rx="8" fill="#EFEAFD"/>
<g clip-path="url(#clip0_7507_15817)">
<path d="M25.0005 13.0001C25.0005 12.7349 25.1058 12.4806 25.2934 12.293C25.4809 12.1055 25.7352 12.0001 26.0005 12.0001C28.6517 12.003 31.1936 13.0575 33.0683 14.9323C34.943 16.807 35.9975 19.3489 36.0004 22.0001C36.0004 22.2654 35.8951 22.5197 35.7076 22.7072C35.52 22.8948 35.2657 23.0001 35.0004 23.0001C34.7352 23.0001 34.4809 22.8948 34.2933 22.7072C34.1058 22.5197 34.0004 22.2654 34.0004 22.0001C33.9981 19.8791 33.1544 17.8457 31.6547 16.3459C30.1549 14.8461 28.1215 14.0025 26.0005 14.0001C25.7352 14.0001 25.4809 13.8948 25.2934 13.7072C25.1058 13.5197 25.0005 13.2653 25.0005 13.0001ZM26.0005 18.0001C27.0613 18.0001 28.0787 18.4216 28.8289 19.1717C29.579 19.9219 30.0005 20.9393 30.0005 22.0001C30.0005 22.2654 30.1058 22.5197 30.2933 22.7072C30.4809 22.8948 30.7352 23.0001 31.0005 23.0001C31.2657 23.0001 31.52 22.8948 31.7076 22.7072C31.8951 22.5197 32.0005 22.2654 32.0005 22.0001C31.9989 20.4093 31.3662 18.8841 30.2413 17.7592C29.1165 16.6344 27.5913 16.0017 26.0005 16.0001C25.7352 16.0001 25.4809 16.1055 25.2934 16.293C25.1058 16.4806 25.0005 16.7349 25.0005 17.0001C25.0005 17.2653 25.1058 17.5197 25.2934 17.7072C25.4809 17.8948 25.7352 18.0001 26.0005 18.0001ZM35.0934 28.7391C35.673 29.3202 35.9984 30.1074 35.9984 30.9281C35.9984 31.7488 35.673 32.536 35.0934 33.1171L34.1834 34.1661C25.9935 42.0071 6.06348 22.0821 13.7835 13.8661L14.9335 12.8661C15.5152 12.3028 16.2954 11.9912 17.1052 11.9987C17.9149 12.0062 18.6892 12.3322 19.2605 12.9061C19.2915 12.9371 21.1445 15.3441 21.1445 15.3441C21.6943 15.9218 22.0004 16.6891 21.9991 17.4865C21.9978 18.284 21.6892 19.0503 21.1375 19.6261L19.9795 21.0821C20.6203 22.6392 21.5625 24.0544 22.752 25.2462C23.9414 26.4381 25.3546 27.3831 26.9105 28.0271L28.3755 26.8621C28.9514 26.3108 29.7175 26.0026 30.5147 26.0015C31.312 26.0004 32.079 26.3065 32.6564 26.8561C32.6564 26.8561 35.0624 28.7081 35.0934 28.7391ZM33.7174 30.1931C33.7174 30.1931 31.3244 28.3521 31.2934 28.3211C31.0874 28.1169 30.8091 28.0023 30.5189 28.0023C30.2288 28.0023 29.9505 28.1169 29.7445 28.3211C29.7175 28.3491 27.7005 29.9561 27.7005 29.9561C27.5645 30.0643 27.4028 30.1352 27.2311 30.1619C27.0594 30.1885 26.8838 30.17 26.7215 30.1081C24.7059 29.3577 22.8752 28.1829 21.3533 26.6632C19.8314 25.1436 18.6539 23.3146 17.9005 21.3001C17.8337 21.1356 17.8119 20.9562 17.8374 20.7805C17.8629 20.6047 17.9347 20.4389 18.0455 20.3001C18.0455 20.3001 19.6525 18.2821 19.6795 18.2561C19.8837 18.0501 19.9983 17.7717 19.9983 17.4816C19.9983 17.1915 19.8837 16.9131 19.6795 16.7071C19.6485 16.6771 17.8075 14.2821 17.8075 14.2821C17.5984 14.0946 17.3255 13.9942 17.0447 14.0015C16.764 14.0087 16.4966 14.1231 16.2975 14.3211L15.1475 15.3211C9.50548 22.1051 26.7765 38.4181 32.7214 32.8001L33.6324 31.7501C33.8459 31.5524 33.9742 31.2794 33.99 30.9888C34.0059 30.6983 33.9081 30.4129 33.7174 30.1931Z" fill="#5F2EEA"/>
</g>
<defs>
<clipPath id="clip0_7507_15817">
<rect width="24" height="24" fill="white" transform="translate(12.0002 12)"/>
</clipPath>
</defs>
</svg>
