<svg width="48" height="48" viewBox="0 0 48 48" fill="none" xmlns="http://www.w3.org/2000/svg">
<rect width="48" height="48" rx="8" fill="#EFEAFD"/>
<g clip-path="url(#clip0_7507_16742)">
<path d="M24.0002 18C23.2046 18 22.4415 18.3161 21.8789 18.8787C21.3163 19.4413 21.0002 20.2044 21.0002 21V33C21.0002 33.7956 21.3163 34.5587 21.8789 35.1213C22.4415 35.6839 23.2046 36 24.0002 36C24.7959 36 25.559 35.6839 26.1216 35.1213C26.6842 34.5587 27.0002 33.7956 27.0002 33V21C27.0002 20.2044 26.6842 19.4413 26.1216 18.8787C25.559 18.3161 24.7959 18 24.0002 18Z" fill="#5F2EEA"/>
<path d="M33.0002 12C32.2046 12 31.4415 12.3161 30.8789 12.8787C30.3163 13.4413 30.0002 14.2044 30.0002 15V33C30.0002 33.7956 30.3163 34.5587 30.8789 35.1213C31.4415 35.6839 32.2046 36 33.0002 36C33.7959 36 34.559 35.6839 35.1216 35.1213C35.6842 34.5587 36.0002 33.7956 36.0002 33V15C36.0002 14.2044 35.6842 13.4413 35.1216 12.8787C34.559 12.3161 33.7959 12 33.0002 12V12ZM34.0002 33C34.0002 33.2652 33.8949 33.5196 33.7074 33.7071C33.5198 33.8946 33.2655 34 33.0002 34C32.735 34 32.4807 33.8946 32.2931 33.7071C32.1056 33.5196 32.0002 33.2652 32.0002 33V15C32.0002 14.7348 32.1056 14.4804 32.2931 14.2929C32.4807 14.1054 32.735 14 33.0002 14C33.2655 14 33.5198 14.1054 33.7074 14.2929C33.8949 14.4804 34.0002 14.7348 34.0002 15V33Z" fill="#5F2EEA"/>
<path d="M15.0002 24C14.2046 24 13.4415 24.3161 12.8789 24.8787C12.3163 25.4413 12.0002 26.2044 12.0002 27V33C12.0002 33.7956 12.3163 34.5587 12.8789 35.1213C13.4415 35.6839 14.2046 36 15.0002 36C15.7959 36 16.559 35.6839 17.1216 35.1213C17.6842 34.5587 18.0002 33.7956 18.0002 33V27C18.0002 26.2044 17.6842 25.4413 17.1216 24.8787C16.559 24.3161 15.7959 24 15.0002 24Z" fill="#5F2EEA"/>
</g>
<defs>
<clipPath id="clip0_7507_16742">
<rect width="24" height="24" fill="white" transform="translate(12.0002 12)"/>
</clipPath>
</defs>
</svg>
