<svg width="16" height="16" viewBox="0 0 16 16" fill="none" xmlns="http://www.w3.org/2000/svg">
<circle cx="8.00008" cy="8.00002" r="7.33333" stroke="#667085" stroke-width="1.33333"/>
<path d="M5.33325 10.77V5.25824C5.33325 4.93899 5.56932 4.67608 5.87533 4.67608H5.98899C6.25128 4.67608 6.39992 4.81692 6.54855 5.0141L9.60866 9.26763V5.23007C9.60866 4.92021 9.84473 4.66669 10.1333 4.66669C10.4305 4.66669 10.6666 4.92021 10.6666 5.23007V10.7512C10.6666 11.0704 10.4393 11.324 10.142 11.324H10.0983C9.84473 11.324 9.68735 11.1831 9.53872 10.9765L6.39118 6.60096V10.77C6.39118 11.0798 6.15511 11.3334 5.86659 11.3334C5.56932 11.3334 5.33325 11.0798 5.33325 10.77Z" fill="#667085"/>
<path fill-rule="evenodd" clip-rule="evenodd" d="M3.33325 6.66669C3.33325 6.39054 3.5654 6.16669 3.85177 6.16669H12.1481C12.4344 6.16669 12.6666 6.39054 12.6666 6.66669C12.6666 6.94283 12.4344 7.16669 12.1481 7.16669H3.85177C3.5654 7.16669 3.33325 6.94283 3.33325 6.66669Z" fill="#667085"/>
<path fill-rule="evenodd" clip-rule="evenodd" d="M3.33325 9.33331C3.33325 9.05717 3.5654 8.83331 3.85177 8.83331H12.1481C12.4344 8.83331 12.6666 9.05717 12.6666 9.33331C12.6666 9.60946 12.4344 9.83331 12.1481 9.83331H3.85177C3.5654 9.83331 3.33325 9.60946 3.33325 9.33331Z" fill="#667085"/>
</svg>
