<svg width="16" height="16" viewBox="0 0 16 16" fill="none" xmlns="http://www.w3.org/2000/svg">
<g clip-path="url(#clip0_7507_15824)">
<path d="M8.66673 0.666755C8.66673 0.489944 8.73697 0.320375 8.86199 0.19535C8.98701 0.070326 9.15658 8.80827e-05 9.3334 8.80827e-05C11.1009 0.00202915 12.7955 0.705031 14.0453 1.95485C15.2951 3.20468 15.9981 4.89924 16.0001 6.66676C16.0001 6.84357 15.9298 7.01314 15.8048 7.13816C15.6798 7.26318 15.5102 7.33342 15.3334 7.33342C15.1566 7.33342 14.987 7.26318 14.862 7.13816C14.737 7.01314 14.6667 6.84357 14.6667 6.66676C14.6651 5.25276 14.1027 3.89712 13.1029 2.89727C12.103 1.89742 10.7474 1.33501 9.3334 1.33342C9.15658 1.33342 8.98701 1.26318 8.86199 1.13816C8.73697 1.01314 8.66673 0.843566 8.66673 0.666755ZM9.3334 4.00009C10.0406 4.00009 10.7189 4.28104 11.219 4.78114C11.7191 5.28123 12.0001 5.95951 12.0001 6.66676C12.0001 6.84357 12.0703 7.01314 12.1953 7.13816C12.3203 7.26318 12.4899 7.33342 12.6667 7.33342C12.8435 7.33342 13.0131 7.26318 13.1381 7.13816C13.2632 7.01314 13.3334 6.84357 13.3334 6.66676C13.3323 5.60621 12.9106 4.58941 12.1606 3.8395C11.4107 3.08958 10.3939 2.66781 9.3334 2.66675C9.15658 2.66675 8.98701 2.73699 8.86199 2.86202C8.73697 2.98704 8.66673 3.15661 8.66673 3.33342C8.66673 3.51023 8.73697 3.6798 8.86199 3.80483C8.98701 3.92985 9.15658 4.00009 9.3334 4.00009ZM15.3954 11.1594C15.7817 11.5468 15.9987 12.0716 15.9987 12.6188C15.9987 13.1659 15.7817 13.6907 15.3954 14.0781L14.7887 14.7774C9.32873 20.0048 -3.95792 6.72142 1.18874 1.24409L1.9554 0.577421C2.34325 0.201873 2.86336 -0.0058792 3.4032 -0.000888689C3.94305 0.00410182 4.45923 0.221434 4.84007 0.604088C4.86073 0.624755 6.09607 2.22942 6.09607 2.22942C6.46262 2.61451 6.66667 3.12604 6.6658 3.65769C6.66493 4.18934 6.45921 4.7002 6.0914 5.08409L5.3194 6.05476C5.74663 7.09283 6.37477 8.03625 7.16774 8.83082C7.9607 9.62538 8.90285 10.2554 9.94006 10.6848L10.9167 9.90809C11.3007 9.54057 11.8114 9.33509 12.3429 9.33434C12.8744 9.3336 13.3858 9.53764 13.7707 9.90409C13.7707 9.90409 15.3747 11.1388 15.3954 11.1594ZM14.4781 12.1288C14.4781 12.1288 12.8827 10.9014 12.8621 10.8808C12.7247 10.7446 12.5391 10.6682 12.3457 10.6682C12.1523 10.6682 11.9667 10.7446 11.8294 10.8808C11.8114 10.8994 10.4667 11.9708 10.4667 11.9708C10.3761 12.0429 10.2683 12.0902 10.1538 12.1079C10.0394 12.1257 9.92228 12.1133 9.81406 12.0721C8.47037 11.5718 7.24989 10.7886 6.23529 9.77548C5.22069 8.76237 4.43567 7.54304 3.9334 6.20009C3.88887 6.09039 3.87435 5.97081 3.89134 5.85365C3.90833 5.73648 3.95621 5.62595 4.03007 5.53342C4.03007 5.53342 5.1014 4.18809 5.1194 4.17076C5.25558 4.03341 5.33198 3.84783 5.33198 3.65442C5.33198 3.46101 5.25558 3.27543 5.1194 3.13809C5.09873 3.11809 3.8714 1.52142 3.8714 1.52142C3.732 1.39643 3.55007 1.32949 3.3629 1.33432C3.17573 1.33915 2.9975 1.4154 2.86474 1.54742L2.09807 2.21409C-1.66326 6.73676 9.85073 17.6121 13.8141 13.8668L14.4214 13.1668C14.5637 13.0349 14.6492 12.8529 14.6598 12.6592C14.6703 12.4655 14.6052 12.2753 14.4781 12.1288Z" fill="#667085"/>
</g>
<defs>
<clipPath id="clip0_7507_15824">
<rect width="16" height="16" fill="white"/>
</clipPath>
</defs>
</svg>
